<?xml version="1.0" encoding="utf-8"?>
<!-- Generator: Adobe Illustrator 18.1.1, SVG Export Plug-In . SVG Version: 6.00 Build 0)  -->
<svg version="1.1" id="Layer_1" xmlns="http://www.w3.org/2000/svg" xmlns:xlink="http://www.w3.org/1999/xlink" x="0px" y="0px"
	 viewBox="0 0 487 331.9" enable-background="new 0 0 487 331.9" xml:space="preserve">
<path fill="none" stroke="#817B75" stroke-width="4.578" d="M381,226.3"/>
<g>
	<path fill="#817B75" d="M309.7,172.3l0.1,97.6l-10.7,0c0.2-0.2,0.5-0.5,0.7-0.7c3.5-4,5-9.7,4.2-15.8c-1.6-11.4-21-33.5-51-33.5
		c-30.2,0-52.9,22.4-52.9,36.9c0,6,2.2,10.3,4.8,13.1h-10.3l0.3-111.4h-8.5V92.6h-14.2l0.4-51.6H166V0h-4.6v41h-7.8V0H149v41h-7.3
		l0.2,51.3h-14.2v66.2h-9.1l-0.1,111.4H97.7V139.8H55.4v53.3h-23v76.7L0,270.2l0,4.6l36.9-0.3v-76.7h23v-53.3h33.2v130.1h30.1
		l0.1-111.4h9.1V96.9h14.2l-0.2-51.3h21.5l-0.4,51.6h14.2v65.9h8.5L190,274.5h22.5v0l0.1,0c0.5,0,1.1,0,1.6,0c0,0,0,0,0,0
		c9.6,0,17-4.4,23.5-8.2c5.4-3.2,10-5.9,15-5.9l0.2,0c6,0.1,12.1,3.8,18,7.3c5.7,3.4,11.1,6.7,16.4,6.8l0.3,0c0,0,0,0,0.1,0l26.6,0
		l-0.1-91.5l21.2,47.1h9.2V130h-8L309.7,172.3z M287.8,269.9l-0.3,0c-4.1-0.1-9-3-14.2-6.1c-6.1-3.7-13-7.9-20.3-8l-0.3,0
		c-6.2,0-11.6,3.2-17.3,6.6c-6.3,3.7-12.8,7.6-21.1,7.6c0,0,0,0,0,0c-0.4,0-0.8,0-1.1,0c-1.2-0.4-8.5-3.1-8.5-13.1
		c0-11.3,19.9-32.3,48.3-32.3c28,0,45.2,20.7,46.5,29.5c0.6,4.7-0.5,9.1-3.1,12.1C294.2,268.6,291.3,269.9,287.8,269.9z
		 M340.1,134.6v90.9h-1.6l-23.7-52.6l24.4-38.2H340.1z"/>
	<path fill="#817B75" d="M456.2,270.1l-8.2-190l-0.1-2.2h-8.5V35.4h-4.6v42.5H425V35.4h-4.6v42.5h-9.7l-8.1,192.2H383l0-67.4
		l-0.4-31.2L356,130h-8v100h9.2l21-46.7l0.3,19.3l0,72h28.7l8.1-192.2h28.4l8.2,190l0.1,2.2l34.8,0v-4.6L456.2,270.1z M354.2,225.5
		h-1.6v-90.9h1l24.5,38.1L354.2,225.5z"/>
</g>
<g>
	<rect x="0" y="283" fill="#8B0021" width="486.6" height="4.6"/>
</g>
<path fill="#8B0021" d="M0.1,331v-34.3h8.3V331H0.1z"/>
<path fill="#8B0021" d="M40,330.4c-2.2,1-4.8,1.5-7.7,1.5c-2.6,0-5.1-0.4-7.3-1.3c-2.2-0.9-4.2-2.1-5.8-3.7
	c-1.6-1.6-2.9-3.5-3.9-5.7c-0.9-2.2-1.4-4.7-1.4-7.4c0-2.7,0.5-5.2,1.4-7.5s2.3-4.1,3.9-5.7c1.7-1.6,3.6-2.8,5.9-3.6
	c2.3-0.8,4.7-1.3,7.3-1.3c2.4,0,4.8,0.4,7.1,1.3c2.3,0.9,4.2,2.1,5.7,3.8l-5.6,5.6c-0.8-1.1-1.8-1.9-3.1-2.4
	c-1.3-0.5-2.6-0.8-3.9-0.8c-1.5,0-2.8,0.3-4,0.8c-1.2,0.5-2.3,1.3-3.1,2.2c-0.9,0.9-1.5,2-2,3.3s-0.7,2.7-0.7,4.2
	c0,1.5,0.2,3,0.7,4.3s1.2,2.4,2,3.3c0.9,0.9,1.9,1.6,3.1,2.2c1.2,0.5,2.5,0.8,3.9,0.8c1.6,0,3.1-0.3,4.3-1c1.2-0.6,2.2-1.5,3-2.5
	l5.8,5.4C44.1,328,42.2,329.4,40,330.4z"/>
<path fill="#8B0021" d="M70.8,331v-14.3H57.4V331h-8.3v-34.3h8.3v13h13.4v-13h8.3V331H70.8z"/>
<path fill="#8B0021" d="M86.1,331v-34.3h23v7H94.1v6.5h14.2v6.6H94.1v7.1h15.9v7.1H86.1z"/>
<path fill="#8B0021" d="M141.5,307.3c0,2-0.4,3.7-1.1,5.1c-0.7,1.4-1.7,2.5-3,3.3c-1.3,0.8-2.7,1.5-4.4,1.8
	c-1.6,0.4-3.4,0.6-5.1,0.6h-4.1V331h-8.3v-34.3h12.6c1.9,0,3.6,0.2,5.3,0.6s3.1,1,4.3,1.8c1.2,0.8,2.2,1.9,2.9,3.2
	C141.2,303.7,141.5,305.3,141.5,307.3z M133.3,307.3c0-0.8-0.2-1.5-0.5-2c-0.3-0.5-0.8-0.9-1.3-1.2c-0.5-0.3-1.2-0.5-1.9-0.6
	s-1.4-0.1-2.2-0.1h-3.6v8.1h3.5c0.8,0,1.5-0.1,2.2-0.2c0.7-0.1,1.3-0.4,1.9-0.7c0.6-0.3,1-0.8,1.3-1.3
	C133.1,308.8,133.3,308.1,133.3,307.3z"/>
<path fill="#817B75" d="M146.3,331v-6.8l13.4-12.1c0.8-0.8,1.5-1.6,2-2.5c0.5-0.8,0.8-1.8,0.8-2.8c0-1.2-0.4-2.2-1.2-3
	c-0.8-0.8-1.8-1.1-3.1-1.1c-1.4,0-2.5,0.5-3.3,1.4c-0.9,1-1.4,2.2-1.5,3.8l-7.8-1.1c0.2-1.7,0.7-3.3,1.4-4.7
	c0.8-1.4,1.7-2.5,2.9-3.5c1.2-1,2.5-1.7,4-2.2s3.1-0.8,4.8-0.8c1.6,0,3.1,0.2,4.6,0.6c1.5,0.4,2.8,1.1,4,1.9c1.2,0.9,2.1,2,2.8,3.3
	c0.7,1.3,1,2.9,1,4.6c0,1.2-0.2,2.3-0.5,3.3c-0.3,1-0.8,1.9-1.3,2.7c-0.6,0.8-1.2,1.6-1.9,2.3c-0.7,0.7-1.5,1.4-2.3,2.2l-7.9,7.1h14
	v7.1H146.3z"/>
<path fill="#817B75" d="M203.3,313.8c0,2.4-0.2,4.7-0.7,6.9c-0.5,2.2-1.3,4.1-2.3,5.8c-1.1,1.7-2.4,3-4.1,4c-1.7,1-3.8,1.5-6.2,1.5
	c-2.4,0-4.5-0.5-6.2-1.5s-3.1-2.3-4.2-4c-1.1-1.7-1.9-3.6-2.3-5.8c-0.5-2.2-0.7-4.5-0.7-6.9s0.2-4.7,0.7-6.9
	c0.5-2.2,1.3-4.1,2.3-5.7c1.1-1.6,2.5-2.9,4.2-3.9c1.7-1,3.8-1.5,6.2-1.5c2.4,0,4.5,0.5,6.2,1.5c1.7,1,3.1,2.3,4.1,3.9
	c1.1,1.6,1.8,3.5,2.3,5.7C203.1,309.1,203.3,311.4,203.3,313.8z M195,313.8c0-1.1-0.1-2.2-0.2-3.5c-0.1-1.3-0.4-2.5-0.7-3.6
	c-0.4-1.1-0.9-2-1.5-2.8c-0.7-0.8-1.5-1.1-2.6-1.1c-1.1,0-1.9,0.4-2.6,1.1s-1.2,1.7-1.6,2.8c-0.4,1.1-0.6,2.3-0.8,3.6
	c-0.1,1.3-0.2,2.5-0.2,3.5c0,1.1,0.1,2.3,0.2,3.6c0.1,1.3,0.4,2.5,0.8,3.6c0.4,1.1,0.9,2.1,1.6,2.8c0.7,0.8,1.5,1.1,2.6,1.1
	c1.1,0,1.9-0.4,2.6-1.1c0.7-0.8,1.2-1.7,1.5-2.8c0.4-1.1,0.6-2.3,0.7-3.6C194.9,316.1,195,314.9,195,313.8z"/>
<path fill="#817B75" d="M215.6,331v-25.2l-6.4,4.9L205,305l11.3-8.3h7.4V331H215.6z"/>
<path fill="#817B75" d="M257.4,319.5c0,1.9-0.4,3.7-1.1,5.2c-0.7,1.5-1.7,2.9-2.9,3.9c-1.2,1.1-2.7,1.9-4.3,2.4
	c-1.6,0.6-3.4,0.8-5.2,0.8c-1.9,0-3.6-0.3-5.2-0.8c-1.6-0.6-3.1-1.4-4.3-2.4c-1.2-1.1-2.2-2.4-2.9-3.9c-0.7-1.5-1.1-3.2-1.1-5.1
	c0-2,0.4-3.9,1.1-5.5s1.6-3.3,2.8-5.1l8.3-12.3h9.8l-8.4,11.7l-0.1,0.2c0.3-0.1,0.7-0.2,1.2-0.3c0.5-0.1,0.9-0.1,1.3-0.1
	c1.5,0,2.9,0.3,4.3,0.8c1.4,0.5,2.6,1.3,3.6,2.3c1,1,1.8,2.2,2.4,3.5C257.1,316.3,257.4,317.8,257.4,319.5z M249.3,319.7
	c0-1.5-0.5-2.8-1.5-3.8c-1-1-2.3-1.5-3.9-1.5s-2.9,0.5-3.9,1.5c-1,1-1.5,2.3-1.5,3.9c0,1.5,0.5,2.8,1.5,3.8c1,1.1,2.3,1.6,3.9,1.6
	c1.6,0,2.9-0.5,3.9-1.5C248.8,322.7,249.3,321.3,249.3,319.7z"/>
<path fill="#8B0021" d="M287.1,330.4c-2.2,1-4.8,1.5-7.7,1.5c-2.6,0-5.1-0.4-7.3-1.3c-2.2-0.9-4.2-2.1-5.8-3.7
	c-1.6-1.6-2.9-3.5-3.9-5.7c-0.9-2.2-1.4-4.7-1.4-7.4c0-2.7,0.5-5.2,1.4-7.5s2.3-4.1,3.9-5.7c1.7-1.6,3.6-2.8,5.9-3.6
	c2.3-0.8,4.7-1.3,7.3-1.3c2.4,0,4.8,0.4,7.1,1.3c2.3,0.9,4.2,2.1,5.7,3.8l-5.6,5.6c-0.8-1.1-1.8-1.9-3.1-2.4
	c-1.3-0.5-2.6-0.8-3.9-0.8c-1.5,0-2.8,0.3-4,0.8c-1.2,0.5-2.3,1.3-3.1,2.2c-0.9,0.9-1.5,2-2,3.3s-0.7,2.7-0.7,4.2
	c0,1.5,0.2,3,0.7,4.3s1.2,2.4,2,3.3c0.9,0.9,1.9,1.6,3.1,2.2c1.2,0.5,2.5,0.8,3.9,0.8c1.6,0,3.1-0.3,4.3-1c1.2-0.6,2.2-1.5,3-2.5
	l5.8,5.4C291.2,328,289.3,329.4,287.1,330.4z"/>
<path fill="#8B0021" d="M317.9,331v-14.3h-13.4V331h-8.3v-34.3h8.3v13h13.4v-13h8.3V331H317.9z"/>
<path fill="#8B0021" d="M333.2,331v-34.3h8.3V331H333.2z"/>
<path fill="#8B0021" d="M372.8,330.4c-2.2,1-4.8,1.5-7.7,1.5c-2.6,0-5.1-0.4-7.3-1.3c-2.2-0.9-4.2-2.1-5.8-3.7
	c-1.6-1.6-2.9-3.5-3.9-5.7c-0.9-2.2-1.4-4.7-1.4-7.4c0-2.7,0.5-5.2,1.4-7.5s2.3-4.1,3.9-5.7c1.7-1.6,3.6-2.8,5.9-3.6
	c2.3-0.8,4.7-1.3,7.3-1.3c2.4,0,4.8,0.4,7.1,1.3c2.3,0.9,4.2,2.1,5.7,3.8l-5.6,5.6c-0.8-1.1-1.8-1.9-3.1-2.4
	c-1.3-0.5-2.6-0.8-3.9-0.8c-1.5,0-2.8,0.3-4,0.8c-1.2,0.5-2.3,1.3-3.1,2.2c-0.9,0.9-1.5,2-2,3.3s-0.7,2.7-0.7,4.2
	c0,1.5,0.2,3,0.7,4.3s1.2,2.4,2,3.3c0.9,0.9,1.9,1.6,3.1,2.2c1.2,0.5,2.5,0.8,3.9,0.8c1.6,0,3.1-0.3,4.3-1c1.2-0.6,2.2-1.5,3-2.5
	l5.8,5.4C376.9,328,375.1,329.4,372.8,330.4z"/>
<path fill="#8B0021" d="M405.2,331l-2.7-6.7h-13.3l-2.5,6.7h-9l14.4-34.3h8l14.2,34.3H405.2z M396,305.9l-4.4,11.8h8.6L396,305.9z"
	/>
<path fill="#8B0021" d="M439.4,331.1c-2.2,0.5-4.7,0.8-7.3,0.8c-2.7,0-5.3-0.4-7.6-1.3c-2.3-0.9-4.3-2.1-6-3.7
	c-1.7-1.6-3-3.5-3.9-5.7c-0.9-2.2-1.4-4.7-1.4-7.4c0-2.7,0.5-5.2,1.4-7.5s2.3-4.1,3.9-5.7c1.7-1.6,3.6-2.8,5.9-3.6
	c2.3-0.8,4.7-1.3,7.3-1.3c2.7,0,5.2,0.4,7.6,1.2s4.2,1.9,5.7,3.3l-5.2,6c-0.8-0.9-1.9-1.7-3.2-2.3c-1.3-0.6-2.8-0.9-4.5-0.9
	c-1.5,0-2.8,0.3-4,0.8c-1.2,0.5-2.3,1.3-3.2,2.2c-0.9,1-1.6,2.1-2.1,3.4c-0.5,1.3-0.8,2.7-0.8,4.3c0,1.6,0.2,3,0.7,4.4
	c0.5,1.3,1.1,2.5,2,3.4c0.9,1,2,1.7,3.3,2.2c1.3,0.5,2.8,0.8,4.5,0.8c1,0,1.9-0.1,2.8-0.2c0.9-0.1,1.7-0.4,2.4-0.7v-6.2h-6.5v-6.7
	h14.1v18.2C443.6,329.8,441.7,330.5,439.4,331.1z"/>
<path fill="#8B0021" d="M487,313.7c0,2.7-0.5,5.2-1.4,7.4c-0.9,2.2-2.2,4.2-3.9,5.8c-1.7,1.6-3.6,2.8-5.9,3.7
	c-2.3,0.9-4.8,1.3-7.5,1.3s-5.2-0.4-7.4-1.3c-2.3-0.9-4.2-2.1-5.9-3.7c-1.7-1.6-3-3.5-3.9-5.8c-0.9-2.2-1.4-4.7-1.4-7.4
	c0-2.7,0.5-5.2,1.4-7.4c0.9-2.2,2.2-4.1,3.9-5.6c1.7-1.5,3.6-2.7,5.9-3.6c2.3-0.8,4.8-1.3,7.4-1.3s5.2,0.4,7.5,1.3
	c2.3,0.8,4.3,2,5.9,3.6c1.7,1.5,3,3.4,3.9,5.6C486.5,308.5,487,311,487,313.7z M478.1,313.7c0-1.5-0.2-2.9-0.7-4.2
	c-0.5-1.3-1.2-2.4-2-3.3s-1.9-1.6-3.1-2.2c-1.2-0.5-2.5-0.8-4-0.8c-1.5,0-2.8,0.3-4,0.8c-1.2,0.5-2.2,1.3-3.1,2.2
	c-0.9,0.9-1.5,2-2,3.3c-0.5,1.3-0.7,2.7-0.7,4.2c0,1.5,0.2,3,0.7,4.3c0.5,1.3,1.2,2.4,2,3.4c0.9,0.9,1.9,1.7,3.1,2.2
	c1.2,0.5,2.5,0.8,4,0.8c1.5,0,2.8-0.3,4-0.8c1.2-0.5,2.2-1.3,3.1-2.2c0.9-0.9,1.5-2.1,2-3.4S478.1,315.3,478.1,313.7z"/>
<g>
	<path fill="#8B0021" d="M67.7,234.2h4.1c0.7,0,1.5,0.1,2.2,0.3c0.8,0.2,1.4,0.5,2,1c0.6,0.4,1.1,1,1.5,1.8c0.4,0.7,0.6,1.6,0.6,2.7
		c0,1-0.2,1.9-0.6,2.6c-0.4,0.7-0.9,1.3-1.5,1.8c-0.6,0.5-1.3,0.8-2,1c-0.8,0.2-1.5,0.3-2.2,0.3h-4.1V234.2z M71.4,243.9
		c0.5,0,1.1-0.1,1.6-0.2c0.5-0.1,1-0.3,1.4-0.6c0.4-0.3,0.8-0.7,1-1.2c0.3-0.5,0.4-1.1,0.4-1.9c0-0.8-0.1-1.5-0.4-2
		c-0.3-0.5-0.6-0.9-1-1.2c-0.4-0.3-0.9-0.5-1.4-0.6c-0.5-0.1-1.1-0.2-1.6-0.2h-1.7v7.9H71.4z"/>
	<polygon fill="#8B0021" points="79,234.2 86.6,234.2 86.6,236 81.1,236 81.1,238.9 86.3,238.9 86.3,240.6 81.1,240.6 81.1,243.9 
		86.9,243.9 86.9,245.7 79,245.7 	"/>
	<path fill="#8B0021" d="M435.7,172.1c0-0.6,0.1-1.2,0.3-1.7c0.2-0.5,0.5-1,0.9-1.3c0.4-0.4,0.9-0.7,1.4-0.9
		c0.5-0.2,1.1-0.3,1.7-0.3c0.6,0,1.2,0.1,1.7,0.3c0.5,0.2,1,0.5,1.4,0.9c0.4,0.4,0.7,0.8,0.9,1.3c0.2,0.5,0.3,1.1,0.3,1.7
		c0,0.6-0.1,1.2-0.3,1.7c-0.2,0.5-0.5,1-0.9,1.3c-0.4,0.4-0.9,0.7-1.4,0.9c-0.5,0.2-1.1,0.3-1.7,0.3c-0.6,0-1.2-0.1-1.7-0.3
		c-0.5-0.2-1-0.5-1.4-0.9c-0.4-0.4-0.7-0.8-0.9-1.3C435.8,173.3,435.7,172.7,435.7,172.1 M437.8,172.1c0,0.3,0,0.6,0.1,0.9
		c0.1,0.3,0.2,0.6,0.4,0.8c0.2,0.2,0.4,0.4,0.7,0.6c0.3,0.2,0.6,0.2,1,0.2c0.4,0,0.7-0.1,1-0.2c0.3-0.2,0.5-0.4,0.7-0.6
		c0.2-0.2,0.3-0.5,0.4-0.8c0.1-0.3,0.1-0.6,0.1-0.9c0-0.3,0-0.6-0.1-0.9c-0.1-0.3-0.2-0.6-0.4-0.8c-0.2-0.2-0.4-0.4-0.7-0.6
		c-0.3-0.2-0.6-0.2-1-0.2c-0.4,0-0.7,0.1-1,0.2c-0.3,0.2-0.5,0.3-0.7,0.6c-0.2,0.2-0.3,0.5-0.4,0.8
		C437.8,171.4,437.8,171.8,437.8,172.1"/>
	<g>
		<path fill="#8B0021" d="M415.9,169.1c-0.1-3.7,1.9-5.6,4.4-5.6c1.6,0,2.7,0.5,5.3,1.7c1.9,0.9,3.2,1.6,4.6,1.6c1.3,0,2-1.1,2-3.1
			h2.2c0.2,4.1-1.9,5.6-4.2,5.6c-1.5,0-2.8-0.4-5.4-1.6c-1.7-0.9-3.1-1.6-4.5-1.6c-1.3,0-2.2,0.9-2.2,3.2H415.9z"/>
	</g>
	<g>
		<path fill="#8B0021" d="M146.6,116h4.3v9.7h11.3V116h4.3v24.1h-4.3v-10.7h-11.3v10.7h-4.3V116z"/>
	</g>
	<g>
		<path fill="#8B0021" d="M66.6,245.6h-4.8l-6.6-18.5H55l-6.7,18.5h-4.6l9.7-24.1h3.7L66.6,245.6z"/>
	</g>
	<path fill="#8B0021" d="M355.4,255.5c-0.3-0.4-0.7-0.7-1.2-0.9c-0.5-0.2-1-0.3-1.4-0.3c-0.6,0-1.1,0.1-1.6,0.3
		c-0.5,0.2-0.9,0.5-1.3,0.9c-0.4,0.4-0.6,0.8-0.8,1.3c-0.2,0.5-0.3,1.1-0.3,1.7c0,0.6,0.1,1.2,0.3,1.7c0.2,0.5,0.4,1,0.8,1.3
		c0.3,0.4,0.7,0.7,1.2,0.9c0.5,0.2,1,0.3,1.6,0.3c0.6,0,1.2-0.1,1.6-0.4c0.5-0.2,0.9-0.6,1.1-1l1.6,1.2c-0.5,0.6-1.1,1.1-1.9,1.5
		c-0.7,0.4-1.6,0.5-2.6,0.5c-0.9,0-1.7-0.1-2.5-0.4c-0.8-0.3-1.4-0.7-1.9-1.2c-0.5-0.5-1-1.2-1.3-1.9c-0.3-0.7-0.5-1.6-0.5-2.5
		c0-0.9,0.2-1.7,0.5-2.5c0.3-0.7,0.8-1.4,1.3-1.9c0.6-0.5,1.2-0.9,2-1.2c0.8-0.3,1.6-0.4,2.5-0.4c0.4,0,0.8,0,1.1,0.1
		c0.4,0.1,0.8,0.2,1.1,0.3c0.4,0.1,0.7,0.3,1,0.5c0.3,0.2,0.6,0.5,0.8,0.8L355.4,255.5z"/>
	<path fill="#8B0021" d="M358.4,252.8h3.7c0.7,0,1.3,0.1,1.8,0.2c0.5,0.1,1,0.3,1.4,0.6c0.4,0.3,0.7,0.6,0.9,1
		c0.2,0.4,0.3,0.9,0.3,1.5c0,0.6-0.1,1.2-0.4,1.6c-0.2,0.4-0.6,0.8-1,1c-0.4,0.3-0.9,0.5-1.4,0.6c-0.5,0.1-1.1,0.2-1.7,0.2h-1.6v4.7
		h-2V252.8z M361.8,257.8c0.3,0,0.7,0,1-0.1c0.3,0,0.6-0.1,0.8-0.3s0.4-0.3,0.6-0.5c0.1-0.2,0.2-0.5,0.2-0.8c0-0.3-0.1-0.6-0.2-0.8
		c-0.1-0.2-0.3-0.4-0.6-0.5c-0.2-0.1-0.5-0.2-0.8-0.2c-0.3,0-0.6-0.1-0.9-0.1h-1.5v3.3H361.8z"/>
	<g>
		<path fill="#8B0021" d="M328.2,255.5c0-1.4,0.2-2.6,0.6-3.8s1-2.1,1.7-2.9c0.7-0.8,1.5-1.4,2.5-1.9c1-0.4,2-0.7,3.1-0.7
			s2.1,0.2,3.1,0.7s1.8,1.1,2.5,1.9c0.7,0.8,1.3,1.8,1.7,2.9s0.6,2.4,0.6,3.8s-0.2,2.6-0.6,3.8c-0.4,1.1-1,2.1-1.7,2.9
			s-1.5,1.4-2.5,1.9c-1,0.5-2,0.7-3.1,0.7s-2.1-0.2-3.1-0.7c-1-0.5-1.8-1.1-2.5-1.9s-1.3-1.8-1.7-2.9
			C328.4,258.1,328.2,256.9,328.2,255.5z M331.9,255.5c0,0.7,0.1,1.4,0.3,2c0.2,0.7,0.4,1.3,0.8,1.8c0.3,0.5,0.8,1,1.3,1.3
			c0.5,0.3,1.1,0.5,1.9,0.5c0.7,0,1.3-0.2,1.9-0.5c0.5-0.3,1-0.8,1.3-1.3c0.3-0.5,0.6-1.1,0.8-1.8c0.2-0.7,0.3-1.4,0.3-2
			c0-0.7-0.1-1.3-0.3-2c-0.2-0.7-0.4-1.3-0.8-1.8c-0.3-0.5-0.8-1-1.3-1.3c-0.5-0.3-1.1-0.5-1.9-0.5c-0.7,0-1.3,0.2-1.9,0.5
			c-0.5,0.3-1,0.8-1.3,1.3s-0.6,1.1-0.8,1.8C332,254.2,331.9,254.8,331.9,255.5z"/>
	</g>
	<g>
		<path fill="#8B0021" d="M339.1,251.2c-1.6-1.3-6.9-5.6-8-7.8c-0.8-1.7-0.3-3.9,1.3-5.1c0.8-0.6,3.6-2.3,7.5,1.1l-2.3,2.7
			c-1.3-1.1-2.5-1.5-3.1-1c-0.3,0.3-0.4,0.6-0.3,0.8c0.5,1,4.1,4.2,7.1,6.6L339.1,251.2z"/>
	</g>
	<g>
		<path fill="#8B0021" d="M423.1,180l-5.9-7.6h4.9l3.5,5.1l3.6-5.1h4.7l-5.8,7.6l6.7,8.7h-5l-4.2-6l-4.3,6h-4.8L423.1,180z"/>
	</g>
	<g>
		<path fill="#8B0021" d="M250.5,246.3V245c0-0.5,0-1,0.1-1.5c0.1-0.4,0.2-0.8,0.4-1.2c0.2-0.4,0.4-0.8,0.7-1.1
			c0.3-0.4,0.6-0.7,1.1-1.2l1.5-1.5c0.4-0.4,0.8-0.8,1.1-1.3c0.3-0.5,0.5-1.1,0.5-1.7c0-0.9-0.3-1.6-0.8-2.2s-1.3-0.9-2.4-0.9
			c-0.5,0-1,0.1-1.4,0.3c-0.4,0.2-0.8,0.5-1.1,0.8c-0.3,0.3-0.5,0.7-0.7,1.1c-0.2,0.4-0.2,0.9-0.3,1.3l-4.2-0.4
			c0.1-1.1,0.4-2.1,0.9-2.9c0.4-0.9,1-1.6,1.7-2.2c0.7-0.6,1.5-1,2.4-1.3c0.9-0.3,1.9-0.5,2.9-0.5c1,0,1.9,0.1,2.8,0.4
			c0.9,0.3,1.6,0.7,2.3,1.3s1.2,1.2,1.6,2.1c0.4,0.8,0.6,1.8,0.6,2.8c0,0.7-0.1,1.4-0.2,1.9c-0.2,0.5-0.4,1-0.7,1.5
			c-0.3,0.5-0.7,0.9-1.1,1.3c-0.4,0.4-0.9,0.9-1.4,1.3c-0.5,0.4-0.8,0.7-1.1,1c-0.3,0.3-0.5,0.6-0.7,0.9c-0.2,0.3-0.3,0.6-0.4,1
			s-0.1,0.8-0.1,1.3v0.9H250.5z M249.8,251.1c0-0.7,0.3-1.3,0.8-1.9s1.2-0.8,1.9-0.8c0.7,0,1.4,0.2,1.9,0.7c0.5,0.5,0.8,1.1,0.8,1.8
			c0,0.7-0.3,1.3-0.8,1.9c-0.5,0.5-1.2,0.8-1.9,0.8c-0.4,0-0.7-0.1-1-0.2c-0.3-0.1-0.6-0.3-0.9-0.5c-0.2-0.2-0.4-0.5-0.6-0.8
			C249.9,251.8,249.8,251.4,249.8,251.1z"/>
	</g>
</g>
</svg>
